<svg width="24" height="24" viewBox="0 0 24 24" fill="none" xmlns="http://www.w3.org/2000/svg">
<path fill-rule="evenodd" clip-rule="evenodd" d="M17 3.4C17.2583 3.4 17.4876 3.56526 17.5692 3.81026L18.2244 5.77566L20.1897 6.43079C20.4348 6.51246 20.6 6.74174 20.6 7C20.6 7.25826 20.4348 7.48754 20.1897 7.56921L18.2244 8.22434L17.5692 10.1897C17.4876 10.4347 17.2583 10.6 17 10.6C16.7418 10.6 16.5125 10.4347 16.4308 10.1897L15.7757 8.22434L13.8103 7.56921C13.5653 7.48754 13.4 7.25826 13.4 7C13.4 6.74174 13.5653 6.51246 13.8103 6.43079L15.7757 5.77566L16.4308 3.81026C16.5125 3.56526 16.7418 3.4 17 3.4Z" fill="black"/>
<path fill-rule="evenodd" clip-rule="evenodd" d="M17 12C17.5523 12 18 12.4477 18 13V18C18 18.5523 17.5523 19 17 19C16.4477 19 16 18.5523 16 18V13C16 12.4477 16.4477 12 17 12Z" fill="black"/>
<path fill-rule="evenodd" clip-rule="evenodd" d="M7.14886 6.72785C7.27064 6.29727 7.66365 6 8.11112 6H9.88889C10.3364 6 10.7294 6.29727 10.8511 6.72786L13.9622 17.7279C14.1125 18.2593 13.8035 18.812 13.272 18.9623C12.7406 19.1126 12.1879 18.8036 12.0376 18.2721L9.13249 8H8.86752L5.96227 18.2722C5.81196 18.8036 5.2593 19.1126 4.72786 18.9623C4.19642 18.8119 3.88745 18.2593 4.03776 17.7278L7.14886 6.72785Z" fill="black"/>
<path fill-rule="evenodd" clip-rule="evenodd" d="M5.00001 15C5.00001 14.4477 5.44773 14 6.00001 14H12C12.5523 14 13 14.4477 13 15C13 15.5523 12.5523 16 12 16H6.00001C5.44773 16 5.00001 15.5523 5.00001 15Z" fill="black"/>
</svg>
